# xmcd CD database file
#
# Track frame offsets:
#	150
#	19355
#	44227
#	74966
#	97953
#	118657
#	131399
#	149006
#	169636
#	178891
#	194533
#	211549
#	232412
#	253382
#	267645
#	285840
#	297497
#	313866
#	329919
#	340945
#
# Disc length: 4709 seconds
#
# Revision: 0
# Processed by: cddbd v1.5.2PL0 Copyright (c) Steve Scherf et al.
# Submitted via: CDex 1.70beta2
#
DISCID=5e126314
DTITLE=Various Artist - SALSA HITMIX VOL.5 - CD2
DYEAR=2011
DGENRE=Salsa
TTITLE0=Cesar Pedroso - Rico Timbalero
TTITLE1=Tumbao Cubacao - Ahora Mismo
TTITLE2=Calle Real Me Lo Gane - Los Dos Sabemos
TTITLE3=Combinacion Latina Salsa - Locura De Amor
TTITLE4=PP Banda - La Bola
TTITLE5=Sergio Rivero - Mirandote Y Acariciandote
TTITLE6=Pio Leiva Y Los Mentirosos - Maria Teresa
TTITLE7=Ruben Gonzalez, JR. - Cabildo
TTITLE8=Orquesta Termidor - Yo Puedo Con Mi Dolor
TTITLE9=The Next Generation - Pa' Lo Rumbero
TTITLE10=El Nene - Feliz Recuerdo
TTITLE11=Soneros De Verdad - Yo Buscare
TTITLE12=Tiburon Morales - Reunion De Cantores
TTITLE13=Gran Afro Cuban Orchesta - Vengo Con Sed
TTITLE14=Tiburon Morales - Tarde De Mayo
TTITLE15=Pupy Y Los Que Son Son - Mamita Portate Bien
TTITLE16=Salsa En La Calle 23 - Reina
TTITLE17=Maracaibo Oriental - Como Lo Pediste
TTITLE18=Los Dos Y Companeros - Maalaff
TTITLE19=Arturo Sandoval Quintet - Relax
EXTD=YEAR: 2011
EXTT0=
EXTT1=
EXTT2=
EXTT3=
EXTT4=
EXTT5=
EXTT6=
EXTT7=
EXTT8=
EXTT9=
EXTT10=
EXTT11=
EXTT12=
EXTT13=
EXTT14=
EXTT15=
EXTT16=
EXTT17=
EXTT18=
EXTT19=
PLAYORDER=
